<?xml version="1.0" encoding="utf-8"?>
<!-- Generator: Adobe Illustrator 16.0.4, SVG Export Plug-In . SVG Version: 6.00 Build 0)  -->
<!DOCTYPE svg PUBLIC "-//W3C//DTD SVG 1.1//EN" "http://www.w3.org/Graphics/SVG/1.1/DTD/svg11.dtd">
<svg version="1.1" id="Ebene_1" xmlns="http://www.w3.org/2000/svg" xmlns:xlink="http://www.w3.org/1999/xlink" x="0px" y="0px"
	 width="425.197px" height="240.945px" viewBox="0 0 425.197 240.945" enable-background="new 0 0 425.197 240.945"
	 xml:space="preserve">
<polygon fill="#C31924" points="258.719,159.289 80.49,207.464 39.282,33.886 246.576,22.835 255.974,52.961 268.163,52.972 
	255.688,14.261 246.448,12.565 14.173,19.708 63.307,226.685 72.539,228.378 78.689,226.421 289.061,159.289 "/>
<g>
	<defs>
		<rect id="SVGID_1_" width="425.197" height="240.945"/>
	</defs>
	<clipPath id="SVGID_2_">
		<use xlink:href="#SVGID_1_"  overflow="visible"/>
	</clipPath>
	<path clip-path="url(#SVGID_2_)" fill="#292928" d="M191.774,78.124c-2.724-2.323-6.051-3.484-9.982-3.484
		c-3.983,0-7.389,1.283-10.219,3.852c-2.811,2.586-4.218,5.842-4.218,9.773c0,3.86,1.677,7.171,5.031,9.93
		c3.143,2.603,6.707,3.904,10.69,3.904c1.887,0,3.834-0.28,5.843-0.839c2.288-0.682,4.06-1.563,5.319-2.645l-3.066-5.293
		c-1.642,1.415-4.053,2.122-7.232,2.122c-2.829,0-5.065-1.284-6.707-3.852l18.288-0.523c0.315-1.364,0.472-2.516,0.472-3.459
		C195.994,83.749,194.587,80.588,191.774,78.124 M176.734,85.749c1.328-2.795,2.997-4.192,5.006-4.192
		c1.029,0,1.99,0.376,2.882,1.127c0.891,0.786,1.554,1.72,1.99,2.803L176.734,85.749z M210.898,74.587
		c-2.603,0-6.499,0.944-11.685,2.83l3.641,6.131c1.292-0.506,2.577-1.03,3.852-1.572c1.694-0.628,3.004-0.943,3.931-0.943
		c2.968,0,4.522,1.285,4.664,3.852c-1.434-0.175-2.883-0.263-4.35-0.263c-3.424,0-6.193,0.534-8.306,1.599
		c-2.69,1.398-4.036,3.598-4.036,6.602c0,2.831,1.128,5.101,3.38,6.813c2.044,1.571,4.534,2.358,7.469,2.358
		c0.819,0,1.78-0.209,2.882-0.628c1.59-0.612,2.522-0.953,2.802-1.022v1.335h8.805l0.105-17.318
		C224.053,77.845,219.669,74.587,210.898,74.587 M215.143,95.078c-1.031,0.208-2.104,0.313-3.222,0.313
		c-3.109,0-4.663-0.839-4.663-2.515c0-1.503,1.571-2.254,4.716-2.254c0.995,0,2.052,0.088,3.169,0.263V95.078z M168.47,64.054
		h-30.919l-0.785,7.311h11.842v30.262h8.804V71.365h11.869L168.47,64.054z M282.049,76.631c-2.533-1.363-5.111-2.044-7.73-2.044
		h-0.419c-0.646,0-1.547,0.227-2.698,0.681c-0.893,0.403-1.8,0.778-2.725,1.128V62.508l-8.805,0.655v38.464h8.805V83.286
		c2.218-0.977,4.165-1.466,5.842-1.466c2.691,0,4.034,1.344,4.034,4.034l-0.051,15.773h8.908c0.069-4.07,0.104-7.537,0.104-10.401
		c0-4.733-0.104-7.756-0.313-9.065C286.634,80.046,284.981,78.203,282.049,76.631 M406.646,84.23
		c-0.419-3.145-1.466-5.467-3.144-6.97c-2.043-1.781-5.232-2.673-9.564-2.673c-2.829,0-5.973,0.927-9.432,2.778
		c-2.619-1.817-5.328-2.725-8.121-2.725c-1.103,0-3.085,0.585-5.949,1.756v-1.651l-8.804,0.655v26.227h8.804V82.998
		c2.008-0.995,3.886-1.494,5.634-1.494c2.461,0,3.694,1.284,3.694,3.852v16.271h8.961v-8.488c0-4.385-0.088-7.617-0.262-9.695
		c2.392-1.327,4.418-1.992,6.079-1.992c2.252,0,3.38,1.301,3.38,3.904v16.271h8.908l0.104-7.886v-1.94
		C406.935,88.046,406.839,85.522,406.646,84.23 M352.18,77.915c-2.831-2.183-6.193-3.275-10.088-3.275
		c-3.651,0-6.822,0.96-9.512,2.882c-2.971,2.114-4.761,5.049-5.371,8.804c-0.106,0.611-0.156,1.24-0.156,1.885
		c0,3.652,1.431,6.839,4.296,9.565c2.97,2.812,6.55,4.218,10.743,4.218c4.401,0,8.104-1.484,11.108-4.455
		c2.706-2.636,4.062-5.693,4.062-9.17c0-0.28-0.02-0.567-0.053-0.864C356.965,83.505,355.286,80.308,352.18,77.915 M346.808,92.876
		c-1.154,1.398-2.691,2.096-4.612,2.096c-1.764,0-3.271-0.642-4.519-1.925c-1.25-1.285-1.874-2.861-1.874-4.73
		c0-1.886,0.629-3.493,1.886-4.822c1.24-1.292,2.743-1.938,4.507-1.938c1.921,0,3.458,0.699,4.612,2.096
		c1.03,1.258,1.545,2.795,1.545,4.612C348.353,90.047,347.838,91.583,346.808,92.876 M312.385,94.5c-3.371,0-6.253-1.127-8.646-3.38
		c-2.429-2.218-3.641-4.977-3.641-8.279c0-3.249,1.178-6.053,3.537-8.411c2.321-2.323,5.127-3.485,8.41-3.485
		c2.444,0,5.921,0.997,10.429,2.987l1.493-7.834c-5.117-1.642-9.355-2.463-12.708-2.463c-5.188,0-9.808,1.843-13.862,5.528
		c-4.104,3.791-6.157,8.263-6.157,13.415c0,5.364,2,9.94,6,13.73c3.967,3.826,8.656,5.739,14.071,5.739
		c3.494,0,8-1.093,13.521-3.275l-1.18-7.652C318.777,93.373,315.022,94.5,312.385,94.5 M242.911,81.557
		c1.642,0,3.555,0.411,5.737,1.231c0.926,0.368,1.868,0.778,2.829,1.232l3.879-6.708c-3.3-1.065-5.309-1.685-6.026-1.859
		c-2.147-0.578-4.078-0.866-5.79-0.866h-0.523c-4.629,0.175-8.264,1.642-10.9,4.402c-2.43,2.499-3.643,5.538-3.643,9.119
		c0,3.511,1.179,6.551,3.538,9.118c2.602,2.829,6.139,4.419,10.611,4.768c0.227,0.035,0.463,0.053,0.707,0.053
		c2.567,0,6.577-0.944,12.026-2.83l-3.668-6.289c-3.494,1.399-6.279,2.098-8.358,2.098h-0.313c-1.573-0.036-2.953-0.696-4.14-1.979
		c-1.189-1.285-1.781-2.844-1.781-4.678c0-1.781,0.592-3.371,1.781-4.768C240.063,82.238,241.408,81.557,242.911,81.557"/>
	<path clip-path="url(#SVGID_2_)" fill="#292928" d="M152.093,132.868h14.38v-3.339h-14.38v-10.994h16.108l-0.327-3.363h-19.797
		v33.478h20.754l0.327-3.339h-17.065V132.868z M189.854,126.424c-2.709-1.244-4.895-1.867-6.56-1.867h-0.234
		c-3.252,0.124-5.821,1.19-7.704,3.197c-1.976,2.102-2.996,5.051-3.057,8.848v0.467c0,7.27,3.478,11.238,10.435,11.907
		c0.187,0.03,0.388,0.047,0.608,0.047c1.664,0,3.835-0.569,6.512-1.704v1.33h4.016v-34.388l-4.016-0.325V126.424z M189.854,144.354
		c-2.677,0.855-4.972,1.283-6.887,1.283c-1.4,0-2.42-0.257-3.058-0.77c-1.339-1.043-2.28-2.202-2.824-3.479
		c-0.515-1.184-0.772-2.67-0.772-4.459v-0.28c0.078-3.346,1.323-5.884,3.737-7.611c0.761-0.529,1.796-0.793,3.103-0.793
		c1.946,0,4.18,0.522,6.701,1.563V144.354z M234.457,145.498c-0.343,0-0.678-0.048-1.004-0.141c-0.608-0.202-0.91-0.839-0.91-1.914
		v-15.406l5.555,0.046v-3.012l-5.555,0.047v-6.397l-3.923,0.676v5.721l-4.482-0.047v3.012l4.482-0.046v15.546
		c0.047,0,0.101,0.476,0.163,1.426c0.094,1.213,0.747,2.187,1.962,2.918c1.104,0.668,2.411,1.019,3.922,1.05
		c1.073,0,2.489-0.489,4.249-1.471l-1.541-3.013C236.394,145.163,235.421,145.498,234.457,145.498 M250.616,124.557
		c-2.103,0-4.685,0.653-7.75,1.96l1.492,2.918c2.381-1.027,4.437-1.541,6.164-1.541c2.131,0,3.595,0.259,4.39,0.771
		c1.059,0.67,1.589,2.023,1.589,4.062c0,0.67-0.05,1.262-0.143,1.774c-1.603-0.482-3.348-0.725-5.229-0.725
		c-2.6,0-4.777,0.639-6.535,1.916c-1.978,1.431-2.966,3.393-2.966,5.883c0,2.163,0.94,3.976,2.824,5.439
		c1.743,1.339,3.75,2.008,6.022,2.008c1.712,0,3.673-0.475,5.884-1.424v1.05h4.016l0.094-15.969
		C260.468,127.265,257.182,124.557,250.616,124.557 M256.358,144.634c-1.945,0.67-3.858,1.003-5.742,1.003
		c-3.41,0-5.112-1.37-5.112-4.108c0-2.833,2.021-4.249,6.069-4.249c1.647,0,3.245,0.186,4.785,0.561V144.634z M216.126,144.003
		c-2.522,1.339-4.576,2.007-6.163,2.007h-0.281c-2.21-0.124-3.744-0.839-4.599-2.147c-0.608-0.917-0.91-2.272-0.91-4.062
		l0.046-14.918l-4.155,0.327c-0.032,2.849-0.047,5.354-0.047,7.517c0,5.448,0.109,8.903,0.327,10.366
		c0.233,1.541,1.331,2.917,3.292,4.132c1.851,1.167,3.765,1.751,5.743,1.751h0.303c1.074-0.031,2.475-0.32,4.203-0.864
		c0.7-0.218,1.447-0.481,2.241-0.793v1.657l4.014-0.655v-23.25h-4.014V144.003z M389.951,126.332
		c-1.882-1.183-3.812-1.774-5.788-1.774h-0.28c-1.09,0.031-2.576,0.474-4.458,1.33c-0.764,0.39-1.589,0.832-2.477,1.331v-2.335
		l-4.016,0.327v23.438h4.016v-18.35c2.896-1.603,5.144-2.405,6.746-2.405h0.188c3.658,0.188,5.486,2.149,5.486,5.883l-0.048,14.872
		h4.108c0.079-3.345,0.118-6.248,0.118-8.709c0-4.933-0.118-8.085-0.351-9.452C392.979,128.946,391.896,127.56,389.951,126.332
		 M356.944,124.557c-3.222,0-5.906,1.245-8.055,3.734c-2.039,2.351-3.058,5.152-3.058,8.404c0,3.284,1.216,6.172,3.642,8.661
		c2.429,2.475,5.285,3.712,8.568,3.712c0.979,0,2.288-0.188,3.922-0.559c1.805-0.451,2.996-0.95,3.572-1.495l-1.471-2.919
		c-0.514,0.483-1.44,0.902-2.778,1.261c-1.184,0.312-2.202,0.467-3.059,0.467c-2.008,0-3.773-0.669-5.299-2.008
		c-1.574-1.307-2.499-2.948-2.779-4.924l17.301-0.561c0.153-0.702,0.231-1.386,0.231-2.056c0-3.159-1.004-5.874-3.011-8.146
		C362.602,125.748,360.025,124.557,356.944,124.557 M349.895,135.599c0.141-1.915,0.848-3.635,2.123-5.158
		c1.37-1.698,2.958-2.547,4.763-2.547c1.884,0,3.446,0.748,4.692,2.242c1.121,1.339,1.759,2.997,1.914,4.973L349.895,135.599z
		 M267.296,148.649h4.017v-23.766l-4.017,0.327V148.649z M409.483,144.493c-0.979,0.67-1.953,1.005-2.919,1.005
		c-0.343,0-0.677-0.048-1.003-0.141c-0.606-0.202-0.911-0.839-0.911-1.914v-15.406l5.557,0.046v-3.012l-5.557,0.047v-6.397
		l-3.922,0.676v5.721l-4.482-0.047v3.012l4.482-0.046v15.546c0.047,0,0.102,0.476,0.163,1.426c0.094,1.213,0.747,2.187,1.962,2.918
		c1.104,0.668,2.412,1.019,3.921,1.05c1.074,0,2.491-0.489,4.249-1.471L409.483,144.493z M337.441,126.424
		c-1.944-1.182-3.984-1.805-6.115-1.867h-0.212c-2.441,0-5.229,1.128-8.357,3.385c-0.855-0.98-1.952-1.791-3.29-2.428
		c-1.37-0.638-2.726-0.957-4.063-0.957h-0.21c-1.072,0.031-2.475,0.474-4.203,1.33c-0.698,0.39-1.445,0.832-2.24,1.331v-2.335
		l-4.016,0.327v23.438h4.016v-18.35c2.552-1.634,4.606-2.452,6.163-2.452h0.28c3.734,0.189,5.603,2.135,5.603,5.837v14.965h4.109
		c0.03-2.257,0.048-4.311,0.048-6.163c0-6.225-0.125-10.117-0.375-11.673c2.739-1.976,4.919-2.966,6.536-2.966h0.212
		c1.896,0.095,3.3,0.608,4.2,1.541c0.857,0.919,1.285,2.381,1.285,4.389v14.872h4.108c0.031-2.862,0.047-5.416,0.047-7.657
		c0-5.54-0.109-9.043-0.327-10.504C340.423,128.992,339.356,127.638,337.441,126.424 M269.304,112.745
		c-0.669,0-1.237,0.241-1.704,0.724c-0.513,0.467-0.77,1.035-0.77,1.703c0,0.67,0.257,1.245,0.77,1.727
		c0.467,0.484,1.035,0.725,1.704,0.725c0.668,0,1.245-0.241,1.728-0.725c0.482-0.482,0.725-1.057,0.725-1.727
		c0-0.668-0.242-1.236-0.725-1.703C270.549,112.985,269.972,112.745,269.304,112.745 M295.239,126.332
		c-1.882-1.183-3.812-1.774-5.79-1.774h-0.278c-1.09,0.031-2.577,0.474-4.459,1.33c-0.765,0.39-1.588,0.832-2.477,1.331v-2.335
		l-4.016,0.327v23.438h4.016v-18.35c2.896-1.603,5.145-2.405,6.747-2.405h0.188c3.657,0.188,5.485,2.149,5.485,5.883l-0.047,14.872
		h4.109c0.078-3.345,0.117-6.248,0.117-8.709c0-4.933-0.117-8.085-0.352-9.452C298.267,128.946,297.185,127.56,295.239,126.332"/>
</g>
</svg>
